<svg xmlns="http //www.w3.org/2000/svg">
	<symbol id="like" viewBox="0 0 16 16">
		<g>
			<path d="M4.26562 7.74846V14.436L4.27031 7.74846H4.26562ZM12.675 6.36877H7.7625L7.9125 3.26877C7.92188 3.08283 7.83906 2.90783 7.68437 2.79221C7.58906 2.72189 7.47188 2.68596 7.35469 2.68752C7.04844 2.68908 6.77813 2.89689 6.69531 3.19221C6.11563 5.29221 5.68125 6.86721 5.39062 7.91877V13.3125H11.6313C11.7874 13.2425 11.9201 13.1289 12.0132 12.9853C12.1063 12.8417 12.156 12.6743 12.1562 12.5031C12.1562 12.3516 12.1203 12.2078 12.0484 12.0766L11.8313 11.6797L12.1734 11.3828C12.2698 11.2994 12.347 11.1962 12.3998 11.0803C12.4527 10.9643 12.4799 10.8384 12.4797 10.711C12.4797 10.5594 12.4437 10.4156 12.3719 10.2844L12.1547 9.88752L12.4969 9.59064C12.5932 9.50723 12.6704 9.40403 12.7232 9.28809C12.7761 9.17215 12.8033 9.04618 12.8031 8.91877C12.8031 8.76721 12.7672 8.62346 12.6953 8.49221L12.4766 8.09377L12.8188 7.79689C12.9151 7.71348 12.9923 7.61028 13.0451 7.49434C13.098 7.3784 13.1252 7.25243 13.125 7.12502C13.125 6.82658 12.9531 6.53908 12.675 6.36877Z" fill="#E6F7FF"/>
			<path d="M1.75 8.25005V13.9375C1.75 14.2141 1.97344 14.4375 2.25 14.4375H3.26562V7.75005H2.25C1.97344 7.75005 1.75 7.97349 1.75 8.25005ZM13.8422 8.33911C14.1047 7.99224 14.25 7.56724 14.25 7.12505C14.25 6.42349 13.8578 5.75786 13.2266 5.39067C13.0641 5.29535 12.879 5.24519 12.6906 5.24536H8.94219L9.03594 3.32505C9.05937 2.86099 8.89531 2.42036 8.575 2.08442C8.4187 1.91868 8.23 1.78683 8.02061 1.69705C7.81123 1.60728 7.58563 1.5615 7.35781 1.56255C6.54531 1.56255 5.82656 2.10942 5.61094 2.89224L4.27031 7.74849L4.26562 14.436H11.6422C11.7875 14.436 11.9266 14.4079 12.0562 14.3516C12.8 14.0344 13.2797 13.3079 13.2797 12.5016C13.2797 12.3047 13.2516 12.111 13.1953 11.9235C13.4578 11.5766 13.6031 11.1516 13.6031 10.7094C13.6031 10.5125 13.575 10.3188 13.5188 10.1313C13.7812 9.78442 13.9266 9.35942 13.9266 8.91724C13.9266 8.72036 13.8984 8.52661 13.8422 8.33911ZM12.8188 7.79692L12.4766 8.0938L12.6953 8.49224C12.7669 8.62297 12.804 8.76976 12.8031 8.9188C12.8031 9.17661 12.6922 9.42192 12.4969 9.59067L12.1547 9.88755L12.3719 10.2844C12.4434 10.4152 12.4805 10.562 12.4797 10.711C12.4797 10.9688 12.3687 11.2141 12.1734 11.3829L11.8313 11.6797L12.0484 12.0766C12.12 12.2073 12.1571 12.3541 12.1562 12.5032C12.1562 12.8532 11.95 13.1688 11.6313 13.3125H5.39062V7.9188C5.68125 6.8688 6.11562 5.2938 6.69531 3.19224C6.73581 3.04809 6.82198 2.92098 6.94087 2.82998C7.05977 2.73898 7.20497 2.689 7.35469 2.68755C7.47188 2.68599 7.58906 2.72192 7.68437 2.79224C7.83906 2.90786 7.92188 3.08286 7.9125 3.2688L7.7625 6.3688H12.675C12.9531 6.53911 13.125 6.82661 13.125 7.12505C13.125 7.38286 13.0141 7.62817 12.8188 7.79692Z" fill="#1890FF"/>
		</g>
	</symbol>
	<symbol id="share" viewBox="0 0 24 24">
		<g>
			<path d="M17.625 15.5625C16.957 15.5625 16.3406 15.7969 15.8578 16.1883L11.0016 12.675C11.0829 12.2287 11.0829 11.7713 11.0016 11.325L15.8578 7.81172C16.3406 8.20312 16.957 8.4375 17.625 8.4375C19.1766 8.4375 20.4375 7.17656 20.4375 5.625C20.4375 4.07344 19.1766 2.8125 17.625 2.8125C16.0734 2.8125 14.8125 4.07344 14.8125 5.625C14.8125 5.89687 14.85 6.15703 14.9227 6.40547L10.3102 9.74531C9.62578 8.83828 8.53828 8.25 7.3125 8.25C5.24062 8.25 3.5625 9.92812 3.5625 12C3.5625 14.0719 5.24062 15.75 7.3125 15.75C8.53828 15.75 9.62578 15.1617 10.3102 14.2547L14.9227 17.5945C14.85 17.843 14.8125 18.1055 14.8125 18.375C14.8125 19.9266 16.0734 21.1875 17.625 21.1875C19.1766 21.1875 20.4375 19.9266 20.4375 18.375C20.4375 16.8234 19.1766 15.5625 17.625 15.5625ZM17.625 4.40625C18.2977 4.40625 18.8438 4.95234 18.8438 5.625C18.8438 6.29766 18.2977 6.84375 17.625 6.84375C16.9523 6.84375 16.4062 6.29766 16.4062 5.625C16.4062 4.95234 16.9523 4.40625 17.625 4.40625ZM7.3125 14.0625C6.17578 14.0625 5.25 13.1367 5.25 12C5.25 10.8633 6.17578 9.9375 7.3125 9.9375C8.44922 9.9375 9.375 10.8633 9.375 12C9.375 13.1367 8.44922 14.0625 7.3125 14.0625ZM17.625 19.5938C16.9523 19.5938 16.4062 19.0477 16.4062 18.375C16.4062 17.7023 16.9523 17.1562 17.625 17.1562C18.2977 17.1562 18.8438 17.7023 18.8438 18.375C18.8438 19.0477 18.2977 19.5938 17.625 19.5938Z" fill="#595959"/>
		</g>
	</symbol>
	<symbol id="dots" viewBox="0 0 16 4">
		<g>
			<path d="M0.125 1.97656C0.125 2.14892 0.158949 2.3196 0.224908 2.47884C0.290867 2.63807 0.387546 2.78276 0.509422 2.90464C0.631299 3.02652 0.775988 3.12319 0.935228 3.18915C1.09447 3.25511 1.26514 3.28906 1.4375 3.28906C1.60986 3.28906 1.78053 3.25511 1.93977 3.18915C2.09901 3.12319 2.2437 3.02652 2.36558 2.90464C2.48745 2.78276 2.58413 2.63807 2.65009 2.47884C2.71605 2.3196 2.75 2.14892 2.75 1.97656C2.75 1.8042 2.71605 1.63353 2.65009 1.47429C2.58413 1.31505 2.48745 1.17036 2.36558 1.04848C2.2437 0.926608 2.09901 0.82993 1.93977 0.763971C1.78053 0.698012 1.60986 0.664063 1.4375 0.664063C1.26514 0.664063 1.09447 0.698012 0.935228 0.763971C0.775988 0.82993 0.631299 0.926608 0.509422 1.04848C0.387546 1.17036 0.290867 1.31505 0.224908 1.47429C0.158949 1.63353 0.125 1.8042 0.125 1.97656ZM6.6875 1.97656C6.6875 2.32466 6.82578 2.6585 7.07192 2.90464C7.31806 3.15078 7.6519 3.28906 8 3.28906C8.3481 3.28906 8.68194 3.15078 8.92808 2.90464C9.17422 2.6585 9.3125 2.32466 9.3125 1.97656C9.3125 1.62847 9.17422 1.29463 8.92808 1.04848C8.68194 0.802343 8.3481 0.664062 8 0.664063C7.6519 0.664062 7.31806 0.802343 7.07192 1.04848C6.82578 1.29463 6.6875 1.62847 6.6875 1.97656ZM13.25 1.97656C13.25 2.32466 13.3883 2.6585 13.6344 2.90464C13.8806 3.15078 14.2144 3.28906 14.5625 3.28906C14.9106 3.28906 15.2444 3.15078 15.4906 2.90464C15.7367 2.6585 15.875 2.32466 15.875 1.97656C15.875 1.62847 15.7367 1.29463 15.4906 1.04848C15.2444 0.802343 14.9106 0.664062 14.5625 0.664063C14.2144 0.664062 13.8806 0.802343 13.6344 1.04848C13.3883 1.29463 13.25 1.62847 13.25 1.97656Z"/>
		</g>
	</symbol>
</svg>